<svg xmlns="http://www.w3.org/2000/svg" version="1.1" xmlns:xlink="http://www.w3.org/1999/xlink" xmlns:svgjs="http://svgjs.com/svgjs" width="1440" height="560" preserveAspectRatio="none" viewBox="0 0 1440 560"><g mask="url(&quot;#SvgjsMask1000&quot;)" fill="none"><rect width="1440" height="560" x="0" y="0" fill="#1e3266"></rect><path d="M1488 560L0 560 L0 350.34Q67.01 297.35, 120 364.35Q164.19 288.55, 240 332.74Q308.26 281, 360 349.27Q410.3 327.56, 432 377.86Q445.74 319.6, 504 333.33Q517.9 275.23, 576 289.13Q623.51 264.64, 648 312.15Q739.22 283.37, 768 374.58Q815.37 301.95, 888 349.32Q942.31 283.63, 1008 337.94Q1036.59 294.52, 1080 323.11Q1110.11 281.22, 1152 311.33Q1232.42 271.75, 1272 352.18Q1279.72 287.9, 1344 295.63Q1373.1 252.73, 1416 281.83Q1478.72 272.55, 1488 335.28z" fill="#182f5d"></path><path d="M1512 560L0 560 L0 438.56Q33.97 400.53, 72 434.51Q111.16 353.67, 192 392.83Q238.9 319.73, 312 366.63Q353.51 336.14, 384 377.65Q451.37 373.01, 456 440.38Q486.71 399.09, 528 429.8Q537.67 367.47, 600 377.13Q667.99 325.12, 720 393.1Q791.98 345.08, 840 417.06Q906.6 363.65, 960 430.25Q982.73 332.98, 1080 355.7Q1126.1 329.8, 1152 375.9Q1205.89 357.79, 1224 411.69Q1271.41 387.1, 1296 434.51Q1303.62 370.13, 1368 377.75Q1392.63 330.38, 1440 355.02Q1492.7 335.72, 1512 388.41z" fill="#25467d"></path><path d="M1464 560L0 560 L0 508.63Q30.73 419.36, 120 450.09Q165.24 375.33, 240 420.57Q321.24 381.81, 360 463.04Q405.37 388.41, 480 433.78Q548.64 382.42, 600 451.07Q666.89 397.96, 720 464.85Q734.91 407.76, 792 422.67Q864.08 374.75, 912 446.83Q965.38 380.2, 1032 433.58Q1084.43 414.01, 1104 466.45Q1156.37 398.82, 1224 451.19Q1268.46 375.65, 1344 420.12Q1431.77 387.89, 1464 475.66z" fill="#356cb1"></path><path d="M1560 560L0 560 L0 536.35Q71.75 488.1, 120 559.85Q166.88 534.73, 192 581.61Q216.47 486.08, 312 510.55Q341.09 467.64, 384 496.74Q483.27 476.01, 504 575.29Q507.83 507.12, 576 510.95Q627.61 442.56, 696 494.16Q773.58 451.74, 816 529.32Q840.3 481.63, 888 505.93Q942.85 488.77, 960 543.62Q1011.69 475.31, 1080 526.99Q1133.77 460.76, 1200 514.54Q1286.04 480.58, 1320 566.61Q1372.91 499.53, 1440 552.44Q1492.27 484.71, 1560 536.98z" fill="white"></path></g><defs><mask id="SvgjsMask1000"><rect width="1440" height="560" fill="#ffffff"></rect></mask></defs></svg>