<svg xmlns="http://www.w3.org/2000/svg" version="1.1" xmlns:xlink="http://www.w3.org/1999/xlink" xmlns:svgjs="http://svgjs.com/svgjs" width="1440" height="560" preserveAspectRatio="none" viewBox="0 0 1440 560">
    <g mask="url(&quot;#SvgjsMask1002&quot;)" fill="none">
        <rect width="1440" height="560" x="0" y="0" fill="#1e3266"></rect>
        <path d="M1464 560L0 560 L0 366.61Q50.71 297.32, 120 348.03Q152.14 260.17, 240 292.31Q270.86 251.17, 312 282.03Q361.84 259.87, 384 309.71Q442.87 296.57, 456 355.44Q481.44 260.88, 576 286.32Q621.12 259.44, 648 304.55Q690.18 274.74, 720 316.92Q784.55 309.47, 792 374.02Q792.58 302.6, 864 303.18Q889.45 256.63, 936 282.08Q995.63 269.71, 1008 329.34Q1030.47 279.81, 1080 302.28Q1134.66 284.94, 1152 339.6Q1219.04 286.64, 1272 353.68Q1293.97 303.65, 1344 325.62Q1411.15 272.77, 1464 339.92z" fill="#182f5d"></path>
        <path d="M1512 560L0 560 L0 399.27Q27.3 354.57, 72 381.87Q157.4 347.27, 192 432.68Q218.55 339.23, 312 365.77Q360.1 341.87, 384 389.97Q400.6 334.57, 456 351.16Q525.23 300.39, 576 369.63Q644.53 366.16, 648 434.7Q672.83 387.53, 720 412.36Q761.02 381.38, 792 422.41Q799.3 357.71, 864 365.01Q933.16 314.17, 984 383.33Q1032.13 359.45, 1056 407.58Q1092.36 323.94, 1176 360.3Q1224.87 337.17, 1248 386.04Q1297.38 363.43, 1320 412.81Q1385.58 358.39, 1440 423.97Q1483.03 395, 1512 438.02z" fill="#25467d"></path>
        <path d="M1464 560L0 560 L0 425.82Q33.75 387.57, 72 421.32Q178.9 408.22, 192 515.11Q234.08 437.19, 312 479.27Q359.38 454.64, 384 502.02Q403.26 401.28, 504 420.55Q575.76 372.31, 624 444.07Q707.11 407.17, 744 490.28Q791.4 465.69, 816 513.09Q854.44 431.54, 936 469.98Q952.14 414.12, 1008 430.26Q1082.49 384.75, 1128 459.23Q1197.2 408.43, 1248 477.63Q1302.09 459.71, 1320 513.8Q1344.05 465.85, 1392 489.9Q1398.56 424.46, 1464 431.02z" fill="#356cb1"></path>
        <path d="M1488 560L0 560 L0 548.96Q68.1 497.06, 120 565.15Q131.52 504.67, 192 516.19Q268.57 472.76, 312 549.33Q355.88 521.22, 384 565.1Q388.24 497.34, 456 501.58Q521.41 446.99, 576 512.4Q644.82 461.22, 696 530.05Q749.64 511.69, 768 565.34Q801.4 478.74, 888 512.14Q930.67 482.81, 960 525.48Q1018.63 512.11, 1032 570.74Q1054.42 521.16, 1104 543.59Q1140.97 460.56, 1224 497.52Q1266.96 468.48, 1296 511.44Q1346.7 490.14, 1368 540.84Q1403.47 456.31, 1488 491.78z" fill="#eeeeee"></path>
    </g>
    <defs>
        <mask id="SvgjsMask1002">
            <rect width="1440" height="560" fill="#ffffff"></rect>
        </mask>
    </defs>
</svg>