<svg xmlns="http://www.w3.org/2000/svg" version="1.1" xmlns:xlink="http://www.w3.org/1999/xlink" xmlns:svgjs="http://svgjs.com/svgjs" width="1000" height="600" preserveAspectRatio="none" viewBox="0 0 1000 600"><g mask="url(&quot;#SvgjsMask1033&quot;)" fill="none"><rect width="1000" height="600" x="0" y="0" fill="#0e2a47"></rect><path d="M640 50L-18 49" stroke-width="10" stroke="url(#SvgjsLinearGradient1034)" stroke-linecap="round" class="Left"></path><path d="M366 570L50 569" stroke-width="6" stroke="url(#SvgjsLinearGradient1035)" stroke-linecap="round" class="Right"></path><path d="M201 167L926 166" stroke-width="8" stroke="url(#SvgjsLinearGradient1034)" stroke-linecap="round" class="Left"></path><path d="M449 286L837 285" stroke-width="6" stroke="url(#SvgjsLinearGradient1035)" stroke-linecap="round" class="Right"></path><path d="M408 361L1101 360" stroke-width="8" stroke="url(#SvgjsLinearGradient1035)" stroke-linecap="round" class="Right"></path><path d="M339 355L619 354" stroke-width="10" stroke="url(#SvgjsLinearGradient1035)" stroke-linecap="round" class="Right"></path><path d="M201 352L-343 351" stroke-width="8" stroke="url(#SvgjsLinearGradient1035)" stroke-linecap="round" class="Right"></path><path d="M564 318L108 317" stroke-width="10" stroke="url(#SvgjsLinearGradient1035)" stroke-linecap="round" class="Right"></path><path d="M550 572L874 571" stroke-width="10" stroke="url(#SvgjsLinearGradient1034)" stroke-linecap="round" class="Left"></path><path d="M726 389L1289 388" stroke-width="8" stroke="url(#SvgjsLinearGradient1034)" stroke-linecap="round" class="Left"></path><path d="M716 71L22 70" stroke-width="10" stroke="url(#SvgjsLinearGradient1035)" stroke-linecap="round" class="Right"></path><path d="M369 214L-341 213" stroke-width="6" stroke="url(#SvgjsLinearGradient1035)" stroke-linecap="round" class="Right"></path><path d="M16 207L548 206" stroke-width="8" stroke="url(#SvgjsLinearGradient1034)" stroke-linecap="round" class="Left"></path><path d="M240 47L-304 46" stroke-width="10" stroke="url(#SvgjsLinearGradient1034)" stroke-linecap="round" class="Left"></path><path d="M436 149L-267 148" stroke-width="10" stroke="url(#SvgjsLinearGradient1035)" stroke-linecap="round" class="Right"></path></g><defs><mask id="SvgjsMask1033"><rect width="1000" height="600" fill="#ffffff"></rect></mask><linearGradient x1="100%" y1="0%" x2="0%" y2="0%" id="SvgjsLinearGradient1034"><stop stop-color="rgba(42, 128, 220, 0)" offset="0"></stop><stop stop-color="rgba(42, 128, 220, 1)" offset="1"></stop></linearGradient><linearGradient x1="0%" y1="0%" x2="100%" y2="0%" id="SvgjsLinearGradient1035"><stop stop-color="rgba(42, 128, 220, 0)" offset="0"></stop><stop stop-color="rgba(42, 128, 220, 1)" offset="1"></stop></linearGradient></defs></svg>