<svg xmlns="http://www.w3.org/2000/svg" version="1.1" xmlns:xlink="http://www.w3.org/1999/xlink" xmlns:svgjs="http://svgjs.com/svgjs" width="350" height="600" preserveAspectRatio="none" viewBox="0 0 350 600"><g mask="url(&quot;#SvgjsMask1012&quot;)" fill="none"><rect width="350" height="600" x="0" y="0" fill="#0e2a47"></rect><path d="M77 580L203 454" stroke-width="10" stroke="url(#SvgjsLinearGradient1013)" stroke-linecap="round" class="BottomLeft"></path><path d="M164 277L330 111" stroke-width="6" stroke="url(#SvgjsLinearGradient1013)" stroke-linecap="round" class="BottomLeft"></path><path d="M128 143L15 256" stroke-width="8" stroke="url(#SvgjsLinearGradient1013)" stroke-linecap="round" class="BottomLeft"></path><path d="M279 235L172 342" stroke-width="10" stroke="url(#SvgjsLinearGradient1013)" stroke-linecap="round" class="BottomLeft"></path><path d="M58 60L-66 184" stroke-width="8" stroke="url(#SvgjsLinearGradient1014)" stroke-linecap="round" class="TopRight"></path><path d="M348 344L94 598" stroke-width="10" stroke="url(#SvgjsLinearGradient1014)" stroke-linecap="round" class="TopRight"></path><path d="M178 235L401 12" stroke-width="8" stroke="url(#SvgjsLinearGradient1013)" stroke-linecap="round" class="BottomLeft"></path><path d="M97 333L276 154" stroke-width="8" stroke="url(#SvgjsLinearGradient1014)" stroke-linecap="round" class="TopRight"></path><path d="M107 284L202 189" stroke-width="8" stroke="url(#SvgjsLinearGradient1013)" stroke-linecap="round" class="BottomLeft"></path><path d="M1 386L-180 567" stroke-width="6" stroke="url(#SvgjsLinearGradient1014)" stroke-linecap="round" class="TopRight"></path><path d="M325 74L67 332" stroke-width="8" stroke="url(#SvgjsLinearGradient1014)" stroke-linecap="round" class="TopRight"></path><path d="M296 204L445 55" stroke-width="6" stroke="url(#SvgjsLinearGradient1013)" stroke-linecap="round" class="BottomLeft"></path><path d="M183 161L409 -65" stroke-width="6" stroke="url(#SvgjsLinearGradient1013)" stroke-linecap="round" class="BottomLeft"></path><path d="M78 108L-124 310" stroke-width="10" stroke="url(#SvgjsLinearGradient1014)" stroke-linecap="round" class="TopRight"></path><path d="M185 174L30 329" stroke-width="10" stroke="url(#SvgjsLinearGradient1013)" stroke-linecap="round" class="BottomLeft"></path><path d="M335 572L576 331" stroke-width="10" stroke="url(#SvgjsLinearGradient1013)" stroke-linecap="round" class="BottomLeft"></path><path d="M331 315L236 410" stroke-width="6" stroke="url(#SvgjsLinearGradient1014)" stroke-linecap="round" class="TopRight"></path><path d="M85 535L-110 730" stroke-width="8" stroke="url(#SvgjsLinearGradient1014)" stroke-linecap="round" class="TopRight"></path></g><defs><mask id="SvgjsMask1012"><rect width="350" height="600" fill="#ffffff"></rect></mask><linearGradient x1="100%" y1="0%" x2="0%" y2="100%" id="SvgjsLinearGradient1013"><stop stop-color="rgba(42, 128, 220, 0)" offset="0"></stop><stop stop-color="rgba(42, 128, 220, 1)" offset="1"></stop></linearGradient><linearGradient x1="0%" y1="100%" x2="100%" y2="0%" id="SvgjsLinearGradient1014"><stop stop-color="rgba(42, 128, 220, 0)" offset="0"></stop><stop stop-color="rgba(42, 128, 220, 1)" offset="1"></stop></linearGradient></defs></svg>