<svg xmlns="http://www.w3.org/2000/svg" version="1.1" xmlns:xlink="http://www.w3.org/1999/xlink" xmlns:svgjs="http://svgjs.com/svgjs" width="1440" height="560" preserveAspectRatio="none" viewBox="0 0 1440 560"><g mask="url(&quot;#SvgjsMask2127&quot;)" fill="none"><rect width="1440" height="560" x="0" y="0" fill="url(#SvgjsLinearGradient2128)"></rect><path d="M1440 0L1225.4 0L1440 166.19z" fill="rgba(255, 255, 255, .1)"></path><path d="M1225.4 0L1440 166.19L1440 239.89999999999998L1056.15 0z" fill="rgba(255, 255, 255, .075)"></path><path d="M1056.15 0L1440 239.89999999999998L1440 264.19L1002.07 0z" fill="rgba(255, 255, 255, .05)"></path><path d="M1002.0699999999999 0L1440 264.19L1440 349.15L494.5999999999999 0z" fill="rgba(255, 255, 255, .025)"></path><path d="M0 560L540.84 560L0 433.89z" fill="rgba(0, 0, 0, .1)"></path><path d="M0 433.89L540.84 560L822.1700000000001 560L0 339.23z" fill="rgba(0, 0, 0, .075)"></path><path d="M0 339.23L822.1700000000001 560L931.8600000000001 560L0 303.3z" fill="rgba(0, 0, 0, .05)"></path><path d="M0 303.3L931.8600000000001 560L1081.6200000000001 560L0 270.67z" fill="rgba(0, 0, 0, .025)"></path></g><defs><mask id="SvgjsMask2127"><rect width="1440" height="560" fill="#ffffff"></rect></mask><linearGradient x1="50%" y1="0%" x2="50%" y2="100%" gradientUnits="userSpaceOnUse" id="SvgjsLinearGradient2128"><stop stop-color="rgba(17, 72, 140, 1)" offset="0"></stop><stop stop-color="rgba(0, 115, 255, 1)" offset="1"></stop></linearGradient></defs></svg>