<svg xmlns="http://www.w3.org/2000/svg" version="1.1" xmlns:xlink="http://www.w3.org/1999/xlink" xmlns:svgjs="http://svgjs.com/svgjs" width="1440" height="560" preserveAspectRatio="none" viewBox="0 0 1440 560"><g mask="url(&quot;#SvgjsMask1024&quot;)" fill="none"><rect width="1440" height="560" x="0" y="0" fill="url(#SvgjsLinearGradient1025)"></rect><path d="M1440 0L1250.28 0L1440 203.52z" fill="rgba(255, 255, 255, .1)"></path><path d="M1250.28 0L1440 203.52L1440 273.23L927.54 0z" fill="rgba(255, 255, 255, .075)"></path><path d="M927.54 0L1440 273.23L1440 445.3L542.3299999999999 0z" fill="rgba(255, 255, 255, .05)"></path><path d="M542.3299999999999 0L1440 445.3L1440 465.42L291.5299999999999 0z" fill="rgba(255, 255, 255, .025)"></path><path d="M0 560L645.07 560L0 480.46z" fill="rgba(0, 0, 0, .1)"></path><path d="M0 480.46L645.07 560L682.8000000000001 560L0 370.28z" fill="rgba(0, 0, 0, .075)"></path><path d="M0 370.28L682.8000000000001 560L737.3000000000001 560L0 141.36999999999998z" fill="rgba(0, 0, 0, .05)"></path><path d="M0 141.37L737.3000000000001 560L884.8800000000001 560L0 110.7z" fill="rgba(0, 0, 0, .025)"></path></g><defs><mask id="SvgjsMask1024"><rect width="1440" height="560" fill="#ffffff"></rect></mask><linearGradient x1="50%" y1="0%" x2="50%" y2="100%" gradientUnits="userSpaceOnUse" id="SvgjsLinearGradient1025"><stop stop-color="#0e2a47" offset="0"></stop><stop stop-color="rgba(44, 113, 246, 0.98)" offset="1"></stop></linearGradient></defs></svg>