<svg xmlns="http://www.w3.org/2000/svg" version="1.1" xmlns:xlink="http://www.w3.org/1999/xlink" xmlns:svgjs="http://svgjs.com/svgjs" width="1440" height="560" preserveAspectRatio="none" viewBox="0 0 1440 560"><g mask="url(&quot;#SvgjsMask1020&quot;)" fill="none"><rect width="1440" height="560" x="0" y="0" fill="url(#SvgjsLinearGradient1021)"></rect><path d="M1440 0L904.07 0L1440 8.86z" fill="rgba(255, 255, 255, .1)"></path><path d="M904.07 0L1440 8.86L1440 77.59L644.02 0z" fill="rgba(255, 255, 255, .075)"></path><path d="M644.02 0L1440 77.59L1440 341.38L474.4 0z" fill="rgba(255, 255, 255, .05)"></path><path d="M474.4 0L1440 341.38L1440 363.62L435.64 0z" fill="rgba(255, 255, 255, .025)"></path><path d="M0 560L706.78 560L0 366.32z" fill="rgba(0, 0, 0, .1)"></path><path d="M0 366.32L706.78 560L999.8299999999999 560L0 217.64z" fill="rgba(0, 0, 0, .075)"></path><path d="M0 217.64L999.8299999999999 560L1208.3899999999999 560L0 144.46999999999997z" fill="rgba(0, 0, 0, .05)"></path><path d="M0 144.46999999999997L1208.3899999999999 560L1351.9299999999998 560L0 47.96999999999997z" fill="rgba(0, 0, 0, .025)"></path></g><defs><mask id="SvgjsMask1020"><rect width="1440" height="560" fill="#ffffff"></rect></mask><linearGradient x1="50%" y1="0%" x2="50%" y2="100%" gradientUnits="userSpaceOnUse" id="SvgjsLinearGradient1021"><stop stop-color="#0e2a47" offset="0"></stop><stop stop-color="#00459e" offset="1"></stop></linearGradient></defs></svg>