<svg id="visual" viewBox="0 0 900 600" width="900" height="600" xmlns="http://www.w3.org/2000/svg" xmlns:xlink="http://www.w3.org/1999/xlink" version="1.1"><rect x="0" y="0" width="900" height="600" fill="#0066FF"></rect><path d="M0 86L21.5 95.5C43 105 86 124 128.8 128C171.7 132 214.3 121 257.2 115.5C300 110 343 110 385.8 113C428.7 116 471.3 122 514.2 127.8C557 133.7 600 139.3 642.8 143.2C685.7 147 728.3 149 771.2 141C814 133 857 115 878.5 106L900 97L900 0L878.5 0C857 0 814 0 771.2 0C728.3 0 685.7 0 642.8 0C600 0 557 0 514.2 0C471.3 0 428.7 0 385.8 0C343 0 300 0 257.2 0C214.3 0 171.7 0 128.8 0C86 0 43 0 21.5 0L0 0Z" fill="#061e2a" stroke-linecap="round" stroke-linejoin="miter"></path></svg>